<?xml version="1.0" encoding="utf-8"?>
<!-- Generator: Adobe Illustrator 26.3.1, SVG Export Plug-In . SVG Version: 6.00 Build 0)  -->
<svg version="1.1" id="Calque_1" xmlns="http://www.w3.org/2000/svg" xmlns:xlink="http://www.w3.org/1999/xlink" x="0px" y="0px"
	 viewBox="0 0 19.5 18" style="enable-background:new 0 0 19.5 18;" xml:space="preserve">
<style type="text/css">
	.st0{fill:#1A3843;}
</style>
<g>
	<g>
		<path class="st0" d="M17.4,2.5h-2.8V1.8c0-1.1-0.9-2.1-2.1-2.1H7c-1.1,0-2.1,0.9-2.1,2.1v0.7H2.1C1,2.5,0,3.4,0,4.6v4.8h4.9
			c0.3-2.3,2.4-4.1,4.8-4.1s4.5,1.8,4.8,4.1h4.9V4.6C19.5,3.4,18.5,2.5,17.4,2.5z"/>
		<path class="st0" d="M9.8,14.9c-2.4,0-4.5-1.8-4.8-4.1H0.1v4.8c0,1.1,0.9,2.1,2.1,2.1h15.2c1.1,0,2.1-0.9,2.1-2.1v-4.8h-4.9
			C14.2,13.1,12.2,14.9,9.8,14.9z"/>
		<path class="st0" d="M9.8,13.5c1.7,0,3.1-1.2,3.4-2.8c0-0.2,0.1-0.5,0.1-0.7s0-0.5-0.1-0.7c-0.3-1.6-1.7-2.8-3.4-2.8
			S6.7,7.7,6.4,9.3c0,0.2-0.1,0.5-0.1,0.7s0,0.5,0.1,0.7C6.7,12.3,8.1,13.5,9.8,13.5z"/>
	</g>
</g>
</svg>
