<?xml version="1.0" encoding="utf-8"?>
<!-- Generator: Adobe Illustrator 26.3.1, SVG Export Plug-In . SVG Version: 6.00 Build 0)  -->
<svg version="1.1" id="Calque_1" xmlns="http://www.w3.org/2000/svg" xmlns:xlink="http://www.w3.org/1999/xlink" x="0px" y="0px"
	 viewBox="0 0 18.6 15" style="enable-background:new 0 0 18.6 15;" xml:space="preserve">
<style type="text/css">
	.st0{fill:#0C3944;}
</style>
<g>
	<path class="st0" d="M11.1,15c-0.4,0-0.7-0.1-1-0.4c-0.6-0.6-0.6-1.5,0-2.1l5-5l-5-5C9.5,1.9,9.5,1,10,0.4c0.6-0.6,1.5-0.6,2.1,0
		l6,6c0.6,0.6,0.6,1.5,0,2.1l-6,6C11.8,14.9,11.4,15,11.1,15z"/>
	<path class="st0" d="M1.5,15c-0.4,0-0.7-0.1-1-0.4c-0.6-0.6-0.6-1.5,0-2.1l5-5l-5-5c-0.6-0.6-0.6-1.5,0-2.1c0.6-0.6,1.5-0.6,2.1,0
		l6,6C9.1,7,9.1,8,8.5,8.5l-6,6C2.2,14.9,1.8,15,1.5,15z"/>
</g>
</svg>
