<?xml version="1.0" encoding="utf-8"?>
<!-- Generator: Adobe Illustrator 26.3.1, SVG Export Plug-In . SVG Version: 6.00 Build 0)  -->
<svg version="1.1" id="Calque_1" xmlns="http://www.w3.org/2000/svg" xmlns:xlink="http://www.w3.org/1999/xlink" x="0px" y="0px"
	 viewBox="0 0 32.1 32.1" style="enable-background:new 0 0 32.1 32.1;" xml:space="preserve">
<style type="text/css">
	.st0{fill:#0C3944;}
</style>
<g>
	<g>
		<g>
			<g>
				<g>
					<path class="st0" d="M16.1,32.1C7.2,32.1,0,24.9,0,16.1S7.2,0,16.1,0c8.9,0,16.1,7.2,16.1,16.1S24.9,32.1,16.1,32.1z M16.1,1
						C7.8,1,1,7.8,1,16.1c0,8.3,6.8,15.1,15.1,15.1s15.1-6.8,15.1-15.1C31.1,7.8,24.4,1,16.1,1z"/>
				</g>
			</g>
		</g>
	</g>
	<g>
		<path class="st0" d="M21.4,21.9c-0.1,0-0.3,0-0.4-0.1L10.4,11.1c-0.2-0.2-0.2-0.5,0-0.7s0.5-0.2,0.7,0L21.7,21
			c0.2,0.2,0.2,0.5,0,0.7C21.6,21.8,21.5,21.9,21.4,21.9z"/>
		<path class="st0" d="M10.8,21.9c-0.1,0-0.3,0-0.4-0.1c-0.2-0.2-0.2-0.5,0-0.7L21,10.4c0.2-0.2,0.5-0.2,0.7,0s0.2,0.5,0,0.7
			L11.1,21.7C11,21.8,10.9,21.9,10.8,21.9z"/>
	</g>
</g>
</svg>
