<?xml version="1.0" encoding="utf-8"?>
<!-- Generator: Adobe Illustrator 26.3.1, SVG Export Plug-In . SVG Version: 6.00 Build 0)  -->
<svg version="1.1" id="Calque_1" xmlns="http://www.w3.org/2000/svg" xmlns:xlink="http://www.w3.org/1999/xlink" x="0px" y="0px"
	 viewBox="0 0 24.7 24.7" style="enable-background:new 0 0 24.7 24.7;" xml:space="preserve">
<style type="text/css">
	.st0{fill:#FFFFFF;}
</style>
<g>
	<path class="st0" d="M13.1,5.7v-5c0-0.4-0.3-0.8-0.8-0.8c-0.4,0-0.8,0.3-0.8,0.8v5c-1.3,0.3-2.3,1.6-2.3,3s1,2.7,2.3,3v12.2
		c0,0.4,0.3,0.8,0.8,0.8c0.4,0,0.8-0.3,0.8-0.8V11.7c1.3-0.3,2.3-1.6,2.3-3S14.5,6.1,13.1,5.7z M13.9,8.7c0,0.9-0.7,1.6-1.6,1.6
		c-0.9,0-1.6-0.7-1.6-1.6s0.7-1.6,1.6-1.6C13.2,7.2,13.9,7.8,13.9,8.7z"/>
	<path class="st0" d="M22.4,12V0.8C22.4,0.3,22,0,21.6,0s-0.8,0.3-0.8,0.8V12c-1.3,0.3-2.3,1.6-2.3,3s1,2.6,2.3,3v5.9
		c0,0.4,0.3,0.8,0.8,0.8s0.8-0.3,0.8-0.8V18c1.3-0.3,2.3-1.6,2.3-3S23.7,12.3,22.4,12z M23.2,15c0,0.9-0.7,1.6-1.6,1.6
		S20,15.9,20,15s0.7-1.6,1.6-1.6S23.2,14.1,23.2,15z"/>
	<path class="st0" d="M3.8,12V0.8C3.8,0.3,3.5,0,3.1,0S2.3,0.3,2.3,0.8V12C1,12.3,0,13.6,0,15s1,2.6,2.3,3v5.9
		c0,0.4,0.3,0.8,0.8,0.8c0.4,0,0.8-0.3,0.8-0.8V18c1.3-0.3,2.3-1.6,2.3-3S5.2,12.3,3.8,12z M4.6,15c0,0.9-0.7,1.6-1.6,1.6
		S1.5,15.9,1.5,15s0.7-1.6,1.6-1.6S4.6,14.1,4.6,15z"/>
</g>
</svg>
