<?xml version="1.0" encoding="utf-8"?>
<!-- Generator: Adobe Illustrator 26.3.1, SVG Export Plug-In . SVG Version: 6.00 Build 0)  -->
<svg version="1.1" id="Calque_1" xmlns="http://www.w3.org/2000/svg" xmlns:xlink="http://www.w3.org/1999/xlink" x="0px" y="0px"
	 viewBox="0 0 26.6 23.7" style="enable-background:new 0 0 26.6 23.7;" xml:space="preserve">
<style type="text/css">
	.st0{fill:#0C3944;}
</style>
<path class="st0" d="M21.1,23.7c1.4,0,2.6-1.2,2.6-2.7V8.7l1.8,1.3c0.3,0.2,0.8,0.1,1-0.2c0.1-0.2,0.2-0.3,0.1-0.5
	c0-0.2-0.1-0.4-0.3-0.5L23.7,7V2.7c0-0.7-0.3-1.4-0.8-1.9C22.4,0.3,21.8,0,21.1,0c-1.4,0-2.6,1.2-2.6,2.6l0,0.5l-3.5-2.6
	c-0.9-0.7-2.2-0.7-3.1,0L0.3,8.9C0.1,9,0,9.2,0,9.3c0,0.2,0,0.4,0.1,0.5c0.2,0.3,0.7,0.4,1,0.2l1.8-1.3v12.3c0,1.5,1.2,2.7,2.6,2.7
	l0,0H21.1z M16.2,22.3h-5.8v-5.7c0-0.7,0.5-1.2,1.2-1.2H15c0.7,0,1.2,0.5,1.2,1.2V22.3z M19.8,2.7c0-0.7,0.5-1.2,1.2-1.2
	c0.3,0,0.6,0.1,0.9,0.4c0.2,0.2,0.4,0.5,0.4,0.8v3.3l-2.4-1.8V2.7z M4.3,21.1V7.7l8.2-6c0.4-0.3,1-0.3,1.4,0l8.2,6v13.4
	c0,0.7-0.5,1.2-1.2,1.2h-3.5v-5.7c0-1.5-1.2-2.7-2.7-2.7h-3.3c-1.5,0-2.7,1.2-2.7,2.7v5.7H5.5C4.9,22.3,4.3,21.7,4.3,21.1z"/>
</svg>
