<?xml version="1.0" encoding="utf-8"?>
<!-- Generator: Adobe Illustrator 26.3.1, SVG Export Plug-In . SVG Version: 6.00 Build 0)  -->
<svg version="1.1" id="Calque_1" xmlns="http://www.w3.org/2000/svg" xmlns:xlink="http://www.w3.org/1999/xlink" x="0px" y="0px"
	 viewBox="0 0 19.8 20" style="enable-background:new 0 0 19.8 20;" xml:space="preserve">
<style type="text/css">
	.st0{fill:#6D888F;}
</style>
<g>
	<g>
		<path class="st0" d="M18,13h-5.4c-1,0-1.9-0.8-1.9-1.9V1.9c0-1,0.8-1.9,1.9-1.9H18c1,0,1.9,0.8,1.9,1.9v9.3C19.8,12.2,19,13,18,13
			z M12.6,1c-0.5,0-0.9,0.4-0.9,0.9v9.3c0,0.5,0.4,0.9,0.9,0.9H18c0.5,0,0.9-0.4,0.9-0.9V1.9C18.8,1.4,18.4,1,18,1H12.6z"/>
		<path class="st0" d="M7.3,20H1.9c-1,0-1.9-0.8-1.9-1.9V1.9C0,0.8,0.8,0,1.9,0h5.5c1,0,1.9,0.8,1.9,1.9v16.3
			C9.2,19.2,8.3,20,7.3,20z M1.9,1C1.4,1,1,1.4,1,1.9v16.3C1,18.7,1.4,19,1.9,19h5.5c0.5,0,0.9-0.4,0.9-0.9V1.9C8.2,1.4,7.8,1,7.3,1
			H1.9z"/>
	</g>
</g>
</svg>
