<?xml version="1.0" encoding="utf-8"?>
<!-- Generator: Adobe Illustrator 26.3.1, SVG Export Plug-In . SVG Version: 6.00 Build 0)  -->
<svg version="1.1" id="Calque_1" xmlns="http://www.w3.org/2000/svg" xmlns:xlink="http://www.w3.org/1999/xlink" x="0px" y="0px"
	 viewBox="0 0 109.2 49.2" style="enable-background:new 0 0 109.2 49.2;" xml:space="preserve">
<style type="text/css">
	.st0{fill:#0C3944;}
	.st1{fill:#FFF30D;}
</style>
<g>
	<g>
		<g>
			<path class="st0" d="M17.2,22.4V10.9L13.5,19h-3.2l-3.7-8.1v11.5h-6V0.6h6.5l4.7,10.3l4.7-10.3h6.5v21.8H17.2z"/>
			<path class="st0" d="M25.4,17.6c0-1.1,0.3-2,0.9-2.8c0.6-0.8,1.4-1.5,2.5-1.9c1.1-0.5,2.3-0.7,3.6-0.7c0.6,0,1.2,0.1,1.8,0.2
				c0.6,0.1,1,0.3,1.5,0.5v-0.5c0-0.7-0.2-1.3-0.7-1.6c-0.4-0.4-1.2-0.5-2.1-0.5c-0.9,0-1.7,0.1-2.5,0.4c-0.8,0.3-1.6,0.7-2.5,1.3
				l-1.7-3.6c1.1-0.7,2.2-1.2,3.4-1.6c1.2-0.3,2.5-0.5,3.9-0.5c2.6,0,4.5,0.6,5.9,1.7s2.1,2.8,2.1,5V16c0,0.5,0.1,0.9,0.2,1.1
				c0.2,0.2,0.5,0.3,0.9,0.4v4.9c-0.5,0.1-0.9,0.2-1.3,0.2c-0.4,0.1-0.8,0.1-1.1,0.1c-1,0-1.8-0.2-2.4-0.6c-0.5-0.4-0.9-0.9-1.1-1.7
				l-0.1-0.6c-0.7,0.9-1.5,1.6-2.5,2.1s-1.9,0.7-3,0.7s-2-0.2-2.9-0.7c-0.9-0.4-1.5-1.1-2-1.8C25.7,19.5,25.4,18.6,25.4,17.6z
				 M34.9,18c0.2-0.2,0.4-0.3,0.6-0.5c0.1-0.2,0.2-0.4,0.2-0.6v-1.1c-0.3-0.1-0.7-0.2-1.1-0.3c-0.4-0.1-0.8-0.1-1.1-0.1
				c-0.7,0-1.3,0.2-1.8,0.5c-0.5,0.3-0.7,0.7-0.7,1.2c0,0.3,0.1,0.5,0.2,0.7s0.4,0.4,0.7,0.5c0.3,0.1,0.6,0.2,1,0.2
				c0.3,0,0.7-0.1,1.1-0.2C34.3,18.3,34.6,18.2,34.9,18z"/>
			<path class="st0" d="M55.4,22.4l-3.7-5.8l-1.2,1.3v4.5h-5.8V0h5.8v12.4l4.3-5.9H61l-5.6,7l6.1,9H55.4z"/>
			<path class="st0" d="M69.8,22.7c-1.4,0-2.7-0.2-3.8-0.7c-1.1-0.4-2-1-2.8-1.8c-0.7-0.7-1.3-1.6-1.7-2.6c-0.4-1-0.6-2-0.6-3.1
				c0-1.5,0.3-2.9,1-4.2c0.7-1.3,1.7-2.3,3-3.1c1.3-0.8,2.9-1.2,4.9-1.2c1.9,0,3.5,0.4,4.9,1.2c1.3,0.8,2.3,1.8,3,3
				c0.7,1.3,1,2.6,1,4.1c0,0.3,0,0.6,0,0.9s-0.1,0.6-0.1,0.8H67.1c0,0.5,0.2,1,0.5,1.3c0.3,0.3,0.6,0.6,1,0.7
				c0.4,0.2,0.9,0.2,1.3,0.2c0.6,0,1.2-0.1,1.8-0.4c0.6-0.3,0.9-0.7,1.1-1.2l4.9,1.4c-0.4,0.9-1,1.6-1.8,2.3
				c-0.8,0.7-1.7,1.2-2.7,1.6C72.2,22.6,71.1,22.7,69.8,22.7z M67,12.8h5.3c-0.1-0.5-0.2-0.9-0.4-1.3c-0.2-0.3-0.5-0.6-0.9-0.8
				c-0.4-0.2-0.8-0.3-1.3-0.3s-0.9,0.1-1.3,0.3c-0.4,0.2-0.7,0.5-0.9,0.8C67.2,11.8,67,12.3,67,12.8z"/>
			<path class="st0" d="M87.4,4.9V0h5.8v4.9H87.4z M87.4,22.4V6.3h5.8v16.2H87.4z"/>
			<path class="st0" d="M107.6,21.5c-0.5,0.2-1.1,0.4-1.7,0.6c-0.6,0.2-1.2,0.3-1.8,0.4c-0.6,0.1-1.2,0.2-1.8,0.2
				c-0.9,0-1.7-0.1-2.4-0.4C99,22,98.4,21.5,98,20.9c-0.4-0.7-0.7-1.6-0.7-2.7v-7.3h-2V6.5h2V1.4h5.8v5.1h3.2v4.4h-3.2V16
				c0,0.5,0.1,0.9,0.3,1.1c0.2,0.2,0.5,0.3,0.9,0.3c0.3,0,0.6-0.1,1-0.2c0.4-0.1,0.7-0.2,1.1-0.4L107.6,21.5z"/>
		</g>
	</g>
	<g>
		<g>
			<path class="st0" d="M40,49.1c-1.4,0-2.8-0.2-4-0.8c-1.3-0.5-2.4-1.2-3.4-2.2c-1-1-1.8-2.2-2.3-3.5s-0.8-3-0.8-4.7
				c0-1.5,0.3-3,0.9-4.3c0.6-1.3,1.4-2.5,2.4-3.5c1-1,2.2-1.8,3.5-2.3c1.4-0.6,2.8-0.8,4.4-0.8c2,0,3.7,0.4,5.3,1.3s2.8,2,3.6,3.5
				L45,35.1c-0.4-0.9-1.1-1.6-1.9-2.1s-1.8-0.8-2.7-0.8c-0.7,0-1.4,0.1-2,0.4c-0.6,0.3-1.1,0.7-1.6,1.2c-0.4,0.5-0.8,1.1-1,1.8
				c-0.2,0.7-0.4,1.5-0.4,2.3c0,0.9,0.1,1.6,0.4,2.3c0.2,0.7,0.6,1.3,1,1.8c0.4,0.5,1,0.9,1.6,1.2c0.6,0.3,1.3,0.4,2.1,0.4
				c1,0,1.9-0.2,2.8-0.7s1.7-1.2,2.4-2v5.8C44,48.3,42.1,49.1,40,49.1z M45.3,41.6h-4v-4.3h9v11.6h-4.9V41.6z"/>
			<path class="st0" d="M63.8,37.7c-1.1,0-2.2,0.1-3.1,0.4s-1.6,0.7-2.1,1.2v9.6h-5.8V33h5.3v2.9c0.6-1.1,1.3-1.9,2.2-2.5
				c0.9-0.6,1.8-0.9,2.7-0.9c0.2,0,0.4,0,0.5,0s0.2,0,0.3,0V37.7z"/>
			<path class="st0" d="M73.6,49.2c-1.4,0-2.7-0.2-3.8-0.7c-1.1-0.4-2-1.1-2.8-1.8c-0.7-0.8-1.3-1.7-1.7-2.6c-0.4-1-0.6-2-0.6-3.1
				s0.2-2.1,0.6-3.1c0.4-1,0.9-1.9,1.7-2.6c0.7-0.8,1.7-1.4,2.8-1.8c1.1-0.4,2.4-0.7,3.8-0.7c1.5,0,2.7,0.2,3.8,0.7
				c1.1,0.4,2,1,2.8,1.8c0.7,0.8,1.3,1.6,1.7,2.6c0.4,1,0.6,2,0.6,3.1s-0.2,2.1-0.6,3.1c-0.4,1-0.9,1.9-1.7,2.6
				c-0.7,0.8-1.7,1.4-2.8,1.8C76.3,49,75,49.2,73.6,49.2z M70.7,41c0,0.7,0.1,1.3,0.4,1.8c0.2,0.5,0.6,0.9,1,1.2s0.9,0.4,1.5,0.4
				s1-0.1,1.5-0.4s0.8-0.6,1-1.2c0.2-0.5,0.4-1.1,0.4-1.8s-0.1-1.3-0.4-1.8c-0.2-0.5-0.6-0.9-1-1.2s-0.9-0.4-1.5-0.4s-1,0.1-1.5,0.4
				s-0.8,0.6-1,1.2C70.8,39.7,70.7,40.3,70.7,41z"/>
			<path class="st0" d="M103.7,33h5.5l-6.6,15.9h-4.8l-2.2-6.1l-2.2,6.1h-4.8L82.1,33h5.5l3.8,10.6l1.1-3.6l-3-7h4.7l1.4,4.7
				l1.4-4.7h4.7l-3,7l1.1,3.6L103.7,33z"/>
		</g>
	</g>
	<path class="st1" d="M19.3,43.1H4.2c-2.3,0-4.2-1.9-4.2-4.2v0c0-2.3,1.9-4.2,4.2-4.2h15.1c2.3,0,4.2,1.9,4.2,4.2v0
		C23.5,41.2,21.6,43.1,19.3,43.1z"/>
</g>
</svg>
