<?xml version="1.0" encoding="utf-8"?>
<!-- Generator: Adobe Illustrator 26.3.1, SVG Export Plug-In . SVG Version: 6.00 Build 0)  -->
<svg version="1.1" id="Calque_1" xmlns="http://www.w3.org/2000/svg" xmlns:xlink="http://www.w3.org/1999/xlink" x="0px" y="0px"
	 viewBox="0 0 24.5 24.5" style="enable-background:new 0 0 24.5 24.5;" xml:space="preserve">
<style type="text/css">
	.st0{fill:#FFFFFF;}
	.st1{fill:#0C3944;}
</style>
<g>
	<circle class="st0" cx="12.3" cy="12.3" r="12.3"/>
	<g>
		<path class="st1" d="M19.6,12.3L19.6,12.3c0,0.4-0.3,0.7-0.7,0.7h-5.8v6.4c0,0.4-0.3,0.7-0.7,0.7h-0.1c-0.4,0-0.7-0.3-0.7-0.7V13
			h-6c-0.4,0-0.7-0.3-0.7-0.7l0,0c0-0.4,0.3-0.7,0.7-0.7h5.8V5.3c0-0.4,0.4-0.8,0.8-0.8l0,0c0.4,0,0.8,0.4,0.8,0.8v6.3h5.8
			C19.3,11.5,19.6,11.9,19.6,12.3z"/>
	</g>
</g>
</svg>
