<?xml version="1.0" encoding="utf-8"?>
<!-- Generator: Adobe Illustrator 26.3.1, SVG Export Plug-In . SVG Version: 6.00 Build 0)  -->
<svg version="1.1" id="Calque_1" xmlns="http://www.w3.org/2000/svg" xmlns:xlink="http://www.w3.org/1999/xlink" x="0px" y="0px"
	 viewBox="0 0 18.4 24.6" style="enable-background:new 0 0 18.4 24.6;" xml:space="preserve">
<style type="text/css">
	.st0{fill:#0C3944;}
</style>
<path class="st0" d="M13.6,20.9H16c0.7,0,1.4-0.3,1.9-0.9c0.5-0.6,0.6-1.3,0.5-2L18,16.6c0-0.1,0-0.1,0-0.2v-5.9
	c0-4.2-3-7.8-7.1-8.6l-0.1,0l0-0.1c0,0,0,0,0-0.1c0,0,0,0,0,0c0-0.9-0.7-1.7-1.7-1.7S7.6,0.7,7.6,1.7c0,0,0,0,0,0c0,0,0,0,0,0.1
	l0,0.1l-0.1,0c-4.1,0.8-7,4.4-7.1,8.5l0,0.1v5.9c0,0.1,0,0.1,0,0.2L0.1,18c-0.2,0.7,0,1.4,0.5,2c0.5,0.6,1.1,0.9,1.9,0.9h2.4l0,0.1
	c0.4,2.1,2.3,3.6,4.4,3.6s4-1.5,4.4-3.6L13.6,20.9z M12,21.1c-0.4,1.2-1.5,2-2.8,2h0c-1.3,0-2.4-0.8-2.8-2l-0.1-0.2H12L12,21.1z
	 M2.4,19.4c-0.4,0-0.6-0.2-0.7-0.3c-0.1-0.1-0.2-0.4-0.2-0.7l0.3-1.4c0-0.2,0.1-0.3,0.1-0.5v-5.9c0-4,3.3-7.3,7.3-7.3l0.1,0
	c4,0,7.2,3.3,7.2,7.3v5.9c0,0.2,0,0.3,0.1,0.5l0.3,1.4c0.1,0.3-0.1,0.6-0.2,0.7c-0.1,0.1-0.3,0.3-0.7,0.3H2.4z"/>
</svg>
