<?xml version="1.0" encoding="utf-8"?>
<!-- Generator: Adobe Illustrator 26.3.1, SVG Export Plug-In . SVG Version: 6.00 Build 0)  -->
<svg version="1.1" id="Calque_1" xmlns="http://www.w3.org/2000/svg" xmlns:xlink="http://www.w3.org/1999/xlink" x="0px" y="0px"
	 viewBox="0 0 24.6 24.6" style="enable-background:new 0 0 24.6 24.6;" xml:space="preserve">
<style type="text/css">
	.st0{fill:#0C3944;}
</style>
<path class="st0" d="M12.3,0C5.5,0,0,5.5,0,12.3s5.5,12.3,12.3,12.3c6.8,0,12.3-5.5,12.3-12.3S19.1,0,12.3,0z M12.3,1.4
	c6,0,10.9,4.9,10.9,10.9c0,2.6-0.9,5-2.5,6.9c-1.2-2.8-3.3-4.8-5.7-5.7c1.4-0.9,2.3-2.5,2.3-4.2c0-2.8-2.3-5.1-5.1-5.1
	S7.3,6.4,7.3,9.2c0,1.8,0.9,3.3,2.3,4.2c-2.4,0.9-4.5,2.9-5.7,5.7c-1.5-1.9-2.5-4.3-2.5-6.9C1.4,6.3,6.3,1.4,12.3,1.4z M12.3,12.9
	c-2,0-3.7-1.6-3.7-3.7s1.6-3.7,3.7-3.7S16,7.2,16,9.2S14.3,12.9,12.3,12.9z M4.9,20.3c1.3-3.6,4.2-5.9,7.4-5.9c3.2,0,6,2.3,7.4,5.9
	c-1.9,1.8-4.5,2.9-7.4,2.9C9.5,23.2,6.9,22.1,4.9,20.3z"/>
</svg>
