<?xml version="1.0" encoding="utf-8"?>
<!-- Generator: Adobe Illustrator 26.3.1, SVG Export Plug-In . SVG Version: 6.00 Build 0)  -->
<svg version="1.1" id="Calque_1" xmlns="http://www.w3.org/2000/svg" xmlns:xlink="http://www.w3.org/1999/xlink" x="0px" y="0px"
	 viewBox="0 0 21.6 21.5" style="enable-background:new 0 0 21.6 21.5;" xml:space="preserve">
<style type="text/css">
	.st0{fill:#91A5AB;}
</style>
<g>
	<g>
		<path class="st0" d="M12.8,17.7c-2.3,0-4.5-0.9-6.3-2.6C3.1,11.7,3.1,6,6.5,2.6c3.4-3.4,9.1-3.4,12.5,0c3.4,3.4,3.4,9.1,0,12.5
			C17.3,16.8,15,17.7,12.8,17.7z M12.8,1.4c-1.9,0-3.8,0.7-5.3,2.2c-2.9,2.9-2.9,7.6,0,10.5c2.9,2.9,7.6,2.9,10.5,0
			c2.9-2.9,2.9-7.6,0-10.5C16.6,2.1,14.7,1.4,12.8,1.4z"/>
		<rect x="-0.8" y="17.1" transform="matrix(0.7071 -0.7071 0.7071 0.7071 -11.5216 7.8055)" class="st0" width="9" height="1.4"/>
	</g>
</g>
</svg>
