<?xml version="1.0" encoding="utf-8"?>
<!-- Generator: Adobe Illustrator 26.3.1, SVG Export Plug-In . SVG Version: 6.00 Build 0)  -->
<svg version="1.1" id="Calque_1" xmlns="http://www.w3.org/2000/svg" xmlns:xlink="http://www.w3.org/1999/xlink" x="0px" y="0px"
	 viewBox="0 0 19.9 19.8" style="enable-background:new 0 0 19.9 19.8;" xml:space="preserve">
<style type="text/css">
	.st0{fill:#6D888F;}
</style>
<g>
	<g>
		<path class="st0" d="M7,8.9H1.9C0.8,8.9,0,8.1,0,7V1.9C0,0.8,0.8,0,1.9,0H7c1,0,1.9,0.8,1.9,1.9V7C8.9,8.1,8.1,8.9,7,8.9z M1.9,1
			C1.4,1,1,1.4,1,1.9V7c0,0.5,0.4,0.9,0.9,0.9H7c0.5,0,0.9-0.4,0.9-0.9V1.9C7.9,1.4,7.5,1,7,1H1.9z"/>
		<path class="st0" d="M18.1,8.9h-5.2c-1,0-1.9-0.8-1.9-1.9V1.9c0-1,0.8-1.9,1.9-1.9h5.2c1,0,1.9,0.8,1.9,1.9V7
			C19.9,8.1,19.1,8.9,18.1,8.9z M12.9,1c-0.5,0-0.9,0.4-0.9,0.9V7c0,0.5,0.4,0.9,0.9,0.9h5.2c0.5,0,0.9-0.4,0.9-0.9V1.9
			c0-0.5-0.4-0.9-0.9-0.9H12.9z"/>
		<path class="st0" d="M7,19.8H1.9C0.8,19.8,0,19,0,18v-5.2c0-1,0.8-1.9,1.9-1.9H7c1,0,1.9,0.8,1.9,1.9V18C8.9,19,8.1,19.8,7,19.8z
			 M1.9,11.9c-0.5,0-0.9,0.4-0.9,0.9V18c0,0.5,0.4,0.9,0.9,0.9H7c0.5,0,0.9-0.4,0.9-0.9v-5.2c0-0.5-0.4-0.9-0.9-0.9H1.9z"/>
		<path class="st0" d="M18.1,19.8h-5.2c-1,0-1.9-0.8-1.9-1.9v-5.2c0-1,0.8-1.9,1.9-1.9h5.2c1,0,1.9,0.8,1.9,1.9V18
			C19.9,19,19.1,19.8,18.1,19.8z M12.9,11.9c-0.5,0-0.9,0.4-0.9,0.9V18c0,0.5,0.4,0.9,0.9,0.9h5.2c0.5,0,0.9-0.4,0.9-0.9v-5.2
			c0-0.5-0.4-0.9-0.9-0.9H12.9z"/>
	</g>
</g>
</svg>
